<svg width="60" height="60" viewBox="0 0 60 60" fill="none" xmlns="http://www.w3.org/2000/svg">
<path fill-rule="evenodd" clip-rule="evenodd" d="M30.5277 40.8046H33.9851V44.262H30.5277V40.8046ZM30.5277 39.7452V36.2883H33.9851V39.7452H30.5277ZM20.3525 44.7038C23.1757 46.5543 26.4715 47.5537 29.847 47.5828C33.2224 47.612 36.5351 46.6697 39.3898 44.8683V31.4098L29.8714 26.0073L20.3525 31.4098V44.7038ZM26.0109 40.8046H29.4683V44.262H26.0109V40.8046ZM26.0109 36.2899H29.4683V39.7468H26.0109V36.2899Z" fill="white"/>
<path fill-rule="evenodd" clip-rule="evenodd" d="M15.2977 28.4836L16.5806 27.7554L29.8708 20.2132L44.4434 28.4847V40.0287C46.4915 37.0865 47.5867 33.5863 47.581 30.0014C47.581 20.2906 39.7084 12.418 29.9976 12.418C20.2869 12.418 12.4142 20.2906 12.4142 30.0014C12.4088 33.4316 13.4115 36.7879 15.2977 39.653V28.4836Z" fill="white"/>
<path fill-rule="evenodd" clip-rule="evenodd" d="M20.9033 52.7981C22.6193 53.482 24.4074 53.9688 26.2332 54.2492L26.8653 60H32.8929L33.5206 54.2879C35.3488 54.0256 37.1414 53.5568 38.864 52.8905L42.2865 57.5556L47.5079 54.5394L45.1909 49.2724C46.6398 48.1283 47.9558 46.8255 49.1144 45.3882L54.4169 47.7197L57.432 42.4988L52.797 39.0989C53.4812 37.3828 53.968 35.5945 54.2481 33.7684L59.9989 33.1374V27.1088L54.2777 26.481C54.0153 24.6535 53.5465 22.8616 52.8803 21.1398L57.547 17.7167L54.533 12.4948L49.2659 14.8128C48.1223 13.3638 46.8196 12.0477 45.3823 10.8894L47.7137 5.58525L42.494 2.57012L39.0919 7.20675C37.376 6.52301 35.5881 6.03618 33.7625 5.75562L33.131 0H27.1018L26.474 5.718C24.6464 5.98006 22.8545 6.44886 21.1328 7.11538L17.7097 2.44812L14.4398 4.33566L12.4883 5.46432L14.4398 9.90263L14.8053 10.7346L14.4398 11.0291C13.135 12.1007 11.9437 13.3034 10.8846 14.6183L5.58094 12.2863L2.56528 17.506L7.20191 20.9081C6.51805 22.6239 6.03122 24.4119 5.75078 26.2375L0 26.8685V32.8972L5.72069 33.5244C5.98302 35.3519 6.45181 37.1438 7.11807 38.8656L2.4508 42.2892L5.46486 47.5106L10.7319 45.1936C11.829 46.5829 13.0723 47.8501 14.4404 48.9735L14.614 49.1149L14.4404 49.5089L12.2825 54.418L14.4404 55.6643L17.5039 57.4331L20.9033 52.7981ZM9.26037 30.0013C9.26037 24.5013 11.4452 19.2266 15.3343 15.3375C19.2234 11.4485 24.4981 9.2636 29.9981 9.2636C41.4508 9.2636 50.7359 18.5487 50.7359 30.0013C50.7359 41.454 41.4508 50.7407 29.9981 50.7407C24.4982 50.7407 19.2236 48.5559 15.3345 44.6669C11.4454 40.778 9.26052 35.5034 9.26037 30.0035V30.0013Z" fill="#F3BB44"/>
</svg>
